<svg id="Horizontal_NatWest_Cushon_Logo" viewBox="0 0 2596.84 750" width="200" xmlns="http://www.w3.org/2000/svg" xmlns:xlink="http://www.w3.org/1999/xlink"><defs><style>.cls-1{fill:url(#linear-gradient);}.cls-2{fill:#fff;}.cls-3{fill:#e90000;}.cls-4{fill:#c20000;}.cls-5{fill:#3c1053;}.cls-6{fill:url(#linear-gradient-3);}.cls-7{fill:url(#linear-gradient-2);}</style><linearGradient gradientUnits="userSpaceOnUse" id="linear-gradient" x1="387.44" x2="462.1" y1="365.33" y2="408.44"><stop offset="0" stop-color="#c20000" stop-opacity=".1"></stop><stop offset=".24" stop-color="#c20000" stop-opacity=".2"></stop><stop offset=".72" stop-color="#c20000" stop-opacity=".44"></stop><stop offset="1" stop-color="#c20000" stop-opacity=".6"></stop></linearGradient><linearGradient gradientTransform="translate(-185.47 -1202.85) rotate(-120)" gradientUnits="userSpaceOnUse" id="linear-gradient-2" x1="-1590.48" x2="-1618.17" y1="-263.42" y2="-339.5"><stop offset="0" stop-color="#c20000" stop-opacity=".1"></stop><stop offset=".2" stop-color="#c20000" stop-opacity=".2"></stop><stop offset=".61" stop-color="#c20000" stop-opacity=".44"></stop><stop offset="1" stop-color="#c20000" stop-opacity=".7"></stop></linearGradient><linearGradient gradientTransform="translate(-1146.62 -448.09) rotate(120)" id="linear-gradient-3" x1="2.44" x2="21.68" xlink:href="#linear-gradient-2" y1="-1680.72" y2="-1789.84"></linearGradient></defs><g id="NW_Squircle"><g id="Squircle"><path class="cls-5" d="m625,375c0,231.85-18.15,250-250,250s-250-18.15-250-250,18.15-250,250-250,250,18.15,250,250Z"></path></g><g id="Chevrons"><polygon class="cls-3" points="449.68 429.95 350.18 429.95 399.9 516.17 499.41 516.17 499.43 516.17 499.43 516.17 449.68 429.95"></polygon><polygon class="cls-4" points="499.4 343.83 549.15 430 499.43 516.17 449.68 429.96 499.4 343.83"></polygon><polygon class="cls-3" points="424.75 214.54 424.76 214.54 325.26 214.54 275.54 300.66 375.03 300.66 375.03 300.66 424.75 214.54"></polygon><polygon class="cls-4" points="375.03 300.66 424.78 386.85 474.5 300.71 424.75 214.54 375.03 300.66"></polygon><polygon class="cls-3" points="300.38 429.95 300.38 429.95 350.1 343.83 250.6 343.83 200.88 429.95 200.88 429.95 200.85 429.99 300.38 429.95"></polygon><polygon class="cls-4" points="350.12 516.17 350.09 516.17 250.6 516.17 200.85 429.99 200.88 429.95 300.38 429.95 350.12 516.17"></polygon><polygon class="cls-1" points="449.6 343.83 424.77 386.85 375.02 386.85 375.02 386.85 350.18 429.95 449.68 429.95 499.4 343.83 449.6 343.83"></polygon><polygon class="cls-7" points="300.51 343.82 350.09 343.82 375.02 386.85 375.02 386.85 424.77 386.85 375.03 300.66 275.54 300.66 300.51 343.82"></polygon><polygon class="cls-6" points="374.98 472.96 350.18 429.95 375.02 386.85 375.02 386.85 350.09 343.82 300.38 429.95 350.12 516.17 374.98 472.96"></polygon></g></g><g id="cushon"><g id="Cushon_Regal"><path class="cls-2" d="m1881.98,343.25c-6.97,0-10.44,3.47-10.44,10.44v47.74c0,11.91-3.17,22.02-9.52,30.31-6.37,8.28-15.01,12.45-25.92,12.45-7.39,0-12.5-2.21-15.4-6.62-2.88-4.42-4.29-10.84-4.29-19.25v-64.64c0-6.97-3.5-10.44-10.44-10.44h-10.71c-3.3,0-5.88.92-7.69,2.75-1.84,1.81-2.75,4.39-2.75,7.69v71.08c0,32.19,14.68,48.32,43.97,48.32,10.14,0,19.17-2.68,27.16-8.01,7.96-5.33,13.62-11.58,16.94-18.7h.5l-.5,5.83v7.42c0,6.97,3.42,10.44,10.19,10.44h9.72c6.97,0,10.47-3.47,10.47-10.44v-105.93c0-3.3-.92-5.88-2.75-7.69-1.84-1.83-4.39-2.75-7.71-2.75h-10.81Z"></path><path class="cls-2" d="m1686.34,345.58c-8.71,3.55-16,8.33-21.88,14.38-5.85,6.03-10.44,13.07-13.72,21.11-3.27,8.06-4.91,16.64-4.91,25.7s1.64,17.66,4.86,25.77c3.3,8.11,7.91,15.13,13.77,21.11,5.88,6,13.17,10.74,21.88,14.24,8.71,3.47,18.2,5.21,28.5,5.21,16.82,0,31.8-4.89,44.92-14.68,3.1-2.28,4.64-4.61,4.64-7.04s-.62-4.74-1.84-6.92l-2.43-4.74c-1.93-3.47-4.22-5.23-6.82-5.23s-5.03.69-7.39,2.06c-8.98,6.4-18.92,9.6-29.76,9.6s-19.92-3.84-27.18-11.53c-7.32-7.69-10.94-17.09-10.94-28.18s3.55-20.44,10.62-28c7.07-7.56,15.7-11.36,25.82-11.36s19.02,2.6,26.71,7.76c2.43,1.32,4.61,1.96,6.55,1.96,2.53.5,4.99-1.09,7.42-4.74l3.15-4.99c1.71-2.58,2.58-5.11,2.58-7.51s-1.51-4.66-4.51-6.7c-11.98-8.41-25.84-12.62-41.52-12.62-10.29,0-19.79,1.78-28.5,5.36"></path><path class="cls-2" d="m1943.67,350.25c-9.18,6.7-13.79,15.87-13.79,27.63s3.79,20.53,11.31,26.12c7.52,5.58,15.01,9.62,22.4,12.08,7.42,2.48,14.14,4.94,20.16,7.37,6.03,2.41,9.05,6.18,9.05,11.29,0,8.66-6.4,13-19.17,13-6.5,0-11.83-1.02-16.07-3.1-4.19-2.06-7.66-3.87-10.44-5.41-2.73-1.54-4.69-2.31-5.83-2.31-3.55,0-6.42,1.51-8.61,4.49l-3.05,4.49c-1.61,2.28-2.43,4.51-2.43,6.7-.55,2.9,1.07,5.43,4.89,7.51,12.62,8.68,26.46,13,41.54,13s26.98-3.67,35.81-11.04c8.83-7.37,13.24-16.77,13.24-28.18s-3.77-19.89-11.31-25.4c-7.51-5.51-14.98-9.47-22.4-11.9-7.42-2.43-14.14-4.81-20.16-7.17-6.05-2.33-9.05-6.15-9.05-11.41,0-8.26,6.05-12.38,18.08-12.38,6.18,0,13.89,2.06,23.22,6.17,2.18.99,4.17,1.46,5.95,1.46,3.4,0,6.03-1.81,7.91-5.46l2.53-4.51c1.04-2.26,1.59-4.64,1.59-7.17s-1.79-4.74-5.36-6.67c-10.91-6.15-23.04-9.23-36.31-9.23s-24.5,3.35-33.71,10.02"></path><path class="cls-2" d="m2319.05,372.4c-6.27-10.19-14.73-18.11-25.37-23.71-10.67-5.66-22.32-8.46-35.05-8.46s-24.41,2.8-35.05,8.46c-10.67,5.6-19.1,13.52-25.32,23.71-6.25,10.22-9.35,21.63-9.35,34.28s3.1,24.08,9.35,34.38c6.32,10.19,14.76,18.08,25.32,23.69,10.57,5.58,22.25,8.36,35.05,8.36s24.48-2.78,35.1-8.36c10.62-5.61,19.05-13.52,25.32-23.76,6.28-10.24,9.42-21.68,9.42-34.3s-3.15-24.06-9.42-34.28Zm-33.63,62.63c-7.32,7.42-16.25,11.11-26.79,11.11s-19.42-3.7-26.66-11.11c-7.24-7.42-10.86-16.87-10.86-28.35s3.6-20.98,10.79-28.42c7.29-7.44,16.2-11.19,26.74-11.19s19.47,3.75,26.79,11.19c7.32,7.44,10.99,16.92,10.99,28.42s-3.67,20.93-10.99,28.35Z"></path><path class="cls-2" d="m2406.36,344.05c-9.23,2.55-17.16,10.24-23.81,23.02h-.47l.47-5.7v-7.66c0-6.97-3.4-10.44-10.19-10.44h-9.72c-6.8,0-10.19,3.47-10.19,10.44v105.93c0,6.97,3.4,10.44,10.19,10.44h10.94c6.8,0,10.19-3.47,10.19-10.44v-48.96c0-11.73,3.37-21.58,10.09-29.59,6.72-7.96,15.53-11.95,26.46-11.95,7.47,0,12.65,2.21,15.55,6.62,2.93,4.44,4.37,10.84,4.37,19.25v64.64c0,6.97,3.5,10.44,10.44,10.44h10.69c6.97,0,10.47-3.47,10.47-10.44v-71.18c0-32.14-14.73-48.22-44.22-48.22-4.94,0-12.03,1.29-21.26,3.82"></path><path class="cls-2" d="m2057.56,293.47c-3.32,0-5.88.89-7.69,2.73-1.84,1.83-2.75,4.39-2.75,7.71v155.71c0,6.97,3.5,10.44,10.44,10.44h10.71c6.94,0,10.44-3.47,10.44-10.44v-48.46c0-12.23,3.37-22.27,10.09-30.18,6.7-7.91,15.53-11.86,26.46-11.86,7.44,0,12.62,2.21,15.53,6.62,2.93,4.44,4.39,10.84,4.39,19.25v64.64c0,6.97,3.47,10.44,10.44,10.44h10.69c6.97,0,10.44-3.47,10.44-10.44v-71.18c0-32.14-14.73-48.22-44.22-48.22-10.09,0-19.12,2.58-27.01,7.71-7.89,5.13-13.59,11.11-17.06,17.93h-.5c.5-4.89.74-8.43.74-10.69v-51.27c0-6.97-3.5-10.44-10.44-10.44h-10.71Z"></path></g></g><path class="cls-2" d="m1081.09,343.39v24.93h-30.38v64.97c0,11.59,5.49,13.84,15.62,13.84,5.92,0,10.38-1.14,12.5-1.79l2.26-.72v24.99l-1.27.31c-8.52,2.16-15.65,2.88-26.16,2.88-7.28,0-31.01-2.4-31.01-33.53v-70.95h-17.83v-1.68c-.02-1.21-.02-9.77,0-17.76v-5.49h17.83v-31.98l28.06-9.82v41.8h30.38Zm188.44-40.76l-33.59,167.49h-28.52l-29.68-116.63-30.17,116.63h-28.05l-35.12-167.49h29.28l22.76,113.65,28.29-113.65h27.3c2.71,10.62,28.34,112.24,28.67,113.51.2-1.35,20.16-109.79,20.86-113.51h27.97Zm29.08,91.01c.72-11.95,9.16-27.54,27.01-27.54,19.37,0,25.27,17.11,25.91,27.54h-52.92Zm28.27-52.52c-21.39,0-57.51,13.94-57.51,66.24,0,62.28,49.55,65.44,59.48,65.44,21.04,0,30.43-4.39,39.66-8.7l1.01-.47v-26.49l-2.67,1.6c-6.7,4.19-19.69,8.89-34.24,8.89-29.45,0-33.61-21.06-33.99-29.93h80.96l.16-1.43c2.56-17.48.03-41.95-14.32-58.61-9.48-10.97-22.47-16.55-38.53-16.55m156.58,93.73c0,19-16.53,38.21-47.99,38.21-13.81,0-29.05-3.43-40-8.71l-.99-.49v-27.2l2.6,1.41c9.11,4.9,23.71,10.11,37.64,10.11,12.71,0,20.01-4.55,20.01-12.51,0-7.48-4.48-9.79-15.54-14.68l-4.36-1.86c-5.35-2.31-10.03-4.37-17.74-7.9-7.39-3.33-24.64-11.11-24.64-34.24,0-12.44,9.55-35.85,45.39-35.85,14.79,0,29.42,3.99,35.19,6.78l1.02.5v26.72l-2.6-1.22c-11.44-5.65-21.48-8.27-32.61-8.27-4.1,0-17.65.82-17.65,10.29,0,7.19,8.54,10.95,15.43,14.05l1.33.56c4.97,2.19,8.87,4.02,12.23,5.34l3.61,1.54c21.58,9.44,29.65,19.52,29.65,37.4m-633.77-132.23h27.39v167.49h-26.63l-73.1-116.65v116.65h-27.35v-167.49h27.31l72.37,117.54v-117.54Zm682.42,65.7v64.97c0,11.63,5.47,13.84,15.66,13.84,5.78,0,10.21-1.14,12.44-1.75l2.29-.76v24.99l-1.44.31c-8.39,2.16-15.51,2.88-26.04,2.88-7.28,0-30.88-2.4-30.88-33.53v-70.95h-17.93v-1.68c-.07-1.21-.07-9.77,0-17.76v-5.49h17.93v-31.98l27.97-9.82v41.8h30.39v24.93h-30.39Zm-563.25,64.81c-3.22,3.96-13.3,14.44-28.99,14.44-12.06,0-19.77-6.93-19.77-17.66s8.79-17.32,24.11-17.32h24.65v20.53Zm-21.61-92.4c-14.24,0-28.07,2.47-37.81,6.71l-1.11.41v25.8l2.54-1.28c6.58-3.19,22.34-6.09,32.22-6.09,24.61,0,25.7,9.37,25.77,21.55h-26.31c-34.84,0-50.7,21.84-50.7,42.09,0,28.23,22.45,42.89,44.74,42.89,15.18,0,24.74-5.69,32.45-12.52v9.83h27.75v-85.64c0-39.49-34.66-43.75-49.54-43.75" id="NatWest_Regal"></path></svg>